<mxfile host="app.diagrams.net" agent="Mozilla/5.0 (Windows NT 10.0; Win64; x64) AppleWebKit/537.36 (KHTML, like Gecko) Chrome/137.0.0.0 Safari/537.36" version="27.1.6">
  <diagram name="Page-1" id="CbXfDu0JtcKnq7CxS38l">
    <mxGraphModel dx="1426" dy="777" grid="1" gridSize="10" guides="1" tooltips="1" connect="1" arrows="1" fold="1" page="1" pageScale="1" pageWidth="827" pageHeight="1169" math="0" shadow="0">
      <root>
        <mxCell id="0" />
        <mxCell id="1" parent="0" />
        <mxCell id="hLIJr2La6NHFs4irqCFs-1" value="Admin" style="shape=umlActor;verticalLabelPosition=bottom;verticalAlign=top;html=1;outlineConnect=0;" vertex="1" parent="1">
          <mxGeometry x="120" y="310" width="30" height="60" as="geometry" />
        </mxCell>
        <mxCell id="hLIJr2La6NHFs4irqCFs-2" value="" style="swimlane;startSize=0;" vertex="1" parent="1">
          <mxGeometry x="240" y="100" width="250" height="570" as="geometry" />
        </mxCell>
        <mxCell id="hLIJr2La6NHFs4irqCFs-3" value="Melakukan Login" style="ellipse;whiteSpace=wrap;html=1;" vertex="1" parent="hLIJr2La6NHFs4irqCFs-2">
          <mxGeometry x="40" y="20" width="180" height="80" as="geometry" />
        </mxCell>
        <mxCell id="hLIJr2La6NHFs4irqCFs-4" value="Menambah Produk" style="ellipse;whiteSpace=wrap;html=1;" vertex="1" parent="hLIJr2La6NHFs4irqCFs-2">
          <mxGeometry x="40" y="110" width="180" height="80" as="geometry" />
        </mxCell>
        <mxCell id="hLIJr2La6NHFs4irqCFs-5" value="Melihat List Produk" style="ellipse;whiteSpace=wrap;html=1;" vertex="1" parent="hLIJr2La6NHFs4irqCFs-2">
          <mxGeometry x="40" y="200" width="180" height="80" as="geometry" />
        </mxCell>
        <mxCell id="hLIJr2La6NHFs4irqCFs-6" value="Mengecek Ketersediaan Stock" style="ellipse;whiteSpace=wrap;html=1;" vertex="1" parent="hLIJr2La6NHFs4irqCFs-2">
          <mxGeometry x="40" y="300" width="180" height="80" as="geometry" />
        </mxCell>
        <mxCell id="hLIJr2La6NHFs4irqCFs-7" value="Melihat riwayat pemesanan" style="ellipse;whiteSpace=wrap;html=1;" vertex="1" parent="hLIJr2La6NHFs4irqCFs-2">
          <mxGeometry x="40" y="390" width="180" height="80" as="geometry" />
        </mxCell>
        <mxCell id="hLIJr2La6NHFs4irqCFs-8" value="Melakukan Logout" style="ellipse;whiteSpace=wrap;html=1;" vertex="1" parent="hLIJr2La6NHFs4irqCFs-2">
          <mxGeometry x="40" y="480" width="180" height="80" as="geometry" />
        </mxCell>
        <mxCell id="hLIJr2La6NHFs4irqCFs-10" value="" style="endArrow=classic;html=1;rounded=0;entryX=0;entryY=0.5;entryDx=0;entryDy=0;" edge="1" parent="1" source="hLIJr2La6NHFs4irqCFs-1" target="hLIJr2La6NHFs4irqCFs-3">
          <mxGeometry width="50" height="50" relative="1" as="geometry">
            <mxPoint x="390" y="430" as="sourcePoint" />
            <mxPoint x="440" y="380" as="targetPoint" />
          </mxGeometry>
        </mxCell>
        <mxCell id="hLIJr2La6NHFs4irqCFs-11" value="" style="endArrow=classic;html=1;rounded=0;exitX=0.5;exitY=0.5;exitDx=0;exitDy=0;exitPerimeter=0;entryX=0;entryY=0.5;entryDx=0;entryDy=0;" edge="1" parent="1" source="hLIJr2La6NHFs4irqCFs-1" target="hLIJr2La6NHFs4irqCFs-4">
          <mxGeometry width="50" height="50" relative="1" as="geometry">
            <mxPoint x="390" y="430" as="sourcePoint" />
            <mxPoint x="440" y="380" as="targetPoint" />
          </mxGeometry>
        </mxCell>
        <mxCell id="hLIJr2La6NHFs4irqCFs-12" value="" style="endArrow=classic;html=1;rounded=0;entryX=0;entryY=0.5;entryDx=0;entryDy=0;" edge="1" parent="1" source="hLIJr2La6NHFs4irqCFs-1" target="hLIJr2La6NHFs4irqCFs-5">
          <mxGeometry width="50" height="50" relative="1" as="geometry">
            <mxPoint x="390" y="430" as="sourcePoint" />
            <mxPoint x="440" y="380" as="targetPoint" />
          </mxGeometry>
        </mxCell>
        <mxCell id="hLIJr2La6NHFs4irqCFs-13" value="" style="endArrow=classic;html=1;rounded=0;exitX=1;exitY=1;exitDx=0;exitDy=0;exitPerimeter=0;entryX=0;entryY=0.5;entryDx=0;entryDy=0;" edge="1" parent="1" source="hLIJr2La6NHFs4irqCFs-1" target="hLIJr2La6NHFs4irqCFs-6">
          <mxGeometry width="50" height="50" relative="1" as="geometry">
            <mxPoint x="390" y="430" as="sourcePoint" />
            <mxPoint x="440" y="380" as="targetPoint" />
          </mxGeometry>
        </mxCell>
        <mxCell id="hLIJr2La6NHFs4irqCFs-14" value="" style="endArrow=classic;html=1;rounded=0;entryX=0;entryY=0.5;entryDx=0;entryDy=0;" edge="1" parent="1" source="hLIJr2La6NHFs4irqCFs-1" target="hLIJr2La6NHFs4irqCFs-7">
          <mxGeometry width="50" height="50" relative="1" as="geometry">
            <mxPoint x="390" y="430" as="sourcePoint" />
            <mxPoint x="440" y="380" as="targetPoint" />
          </mxGeometry>
        </mxCell>
        <mxCell id="hLIJr2La6NHFs4irqCFs-16" value="" style="endArrow=classic;html=1;rounded=0;exitX=0.5;exitY=0.5;exitDx=0;exitDy=0;exitPerimeter=0;entryX=0;entryY=0.5;entryDx=0;entryDy=0;" edge="1" parent="1" source="hLIJr2La6NHFs4irqCFs-1" target="hLIJr2La6NHFs4irqCFs-8">
          <mxGeometry width="50" height="50" relative="1" as="geometry">
            <mxPoint x="390" y="430" as="sourcePoint" />
            <mxPoint x="440" y="380" as="targetPoint" />
          </mxGeometry>
        </mxCell>
      </root>
    </mxGraphModel>
  </diagram>
</mxfile>
